# xmcd CD database file
#
# Track frame offsets:
#	150
#	16055
#	30117
#	45454
#	61483
#	77128
#	92865
#	109089
#	124459
#	137096
#	153001
#	167063
#	182400
#	198429
#	214074
#	229811
#	246035
#	258977
#	274347
#	286984
#	302889
#	318918
#	331860
#	344802
#
# Disc length: 4763 seconds
#
# Revision: 0
# Processed by: cddbd v1.4PL0 Copyright (c) Steve Scherf et al.
# Submitted via: CDex 1.50
#
DISCID=51129918
DTITLE=Toby Keith - Toby Keith- Zetroc Tunes Edition 
DYEAR=1993
DGENRE=Country
TTITLE0=Should've Been A Cowboy 
TTITLE1=He Ain't Worth Missing 
TTITLE2=Under The Fall 
TTITLE3=Some Kinda Good Kinda Hold On Me 
TTITLE4=Wish I Didn't Know Now 
TTITLE5=Ain't No Thang 
TTITLE6=Valentine 
TTITLE7=Mama Come Quick 
TTITLE8=Close But No Guitar 
TTITLE9=Should've Been A Cowboy 
TTITLE10=He Ain't Worth Missing 
TTITLE11=Under The Fall 
TTITLE12=Some Kinda Good Kinda Hold On Me 
TTITLE13=Wish I Didn't Know Now 
TTITLE14=Ain't No Thang 
TTITLE15=Valentine 
TTITLE16=A Little Less Talk And A Lot More Action 
TTITLE17=Mama Come Quick 
TTITLE18=Close But No Guitar 
TTITLE19=Should've Been A Cowboy 
TTITLE20=Some Kinda Good Kinda Hold On Me 
TTITLE21=A Little Less Talk And A Lot More Action
TTITLE22=A Little Less Talk And A Lot More Action
TTITLE23=Close But No Guitar 
EXTD=YEAR: 1993
EXTT0=
EXTT1=
EXTT2=
EXTT3=
EXTT4=
EXTT5=
EXTT6=
EXTT7=
EXTT8=
EXTT9=
EXTT10=
EXTT11=
EXTT12=
EXTT13=
EXTT14=
EXTT15=
EXTT16=
EXTT17=
EXTT18=
EXTT19=
EXTT20=
EXTT21=
EXTT22=
EXTT23=
PLAYORDER=
